# xmcd
#
# Track frame offsets: 
#        150
#        12581
#        27363
#        37361
#        49365
#        60842
#        71916
#        81973
#        92810
#        103141
#
# Disc length: 1541 seconds
#
# Revision: 0
# Processed by: cddbd v1.5.2PL0 Copyright (c) Steve Scherf et al.
# Submitted via: ExactAudioCopy v0.95b4
#
DISCID=8e06030a
DTITLE=Johnny Cash - The Legendary Johnny Cash
DYEAR=2006
DGENRE=Country
TTITLE0=I Walk The Line
TTITLE1=There Ain't No Good Chain Gang (With Waylon Jennings)
TTITLE2=Ballad Of A Teenage Queen
TTITLE3=Home Of The Blues
TTITLE4=Big River
TTITLE5=Cry, Cry, Cry
TTITLE6=Hey, Porter!
TTITLE7=Train Of Love
TTITLE8=Busted (With The Carter Family)
TTITLE9=Give My Love To Rose
EXTD=
EXTT0=
EXTT1=
EXTT2=
EXTT3=
EXTT4=
EXTT5=
EXTT6=
EXTT7=
EXTT8=
EXTT9=
PLAYORDER=
